# xmcd
#
# Track frame offsets: 
#        150
#        18397
#        40335
#        65762
#        84260
#        101587
#        128580
#        147952
#        163915
#        182285
#        200532
#        220092
#
# Disc length: 3204 seconds
#
# Revision: 11
# Processed by: cddbd v1.5.2PL0 Copyright (c) Steve Scherf et al.
# Submitted via: ExactAudioCopy v0.99pb5
#
DISCID=a20c820c
DTITLE=Various Artist - The Power Of Love - TL 629-01 - Heartbeat - CD 1
DYEAR=1996
DGENRE=Pop
TTITLE0=Foreigner - I want to know what love is
TTITLE1=REO Speedwagon - Can't fight this feeling
TTITLE2=Mr. Mister - Broken wings
TTITLE3=Richard Marx - Right here waiting
TTITLE4=Bangles - Eternal flame
TTITLE5=Far Corporation - Stairway to heaven
TTITLE6=Christopher Cross - Sailing
TTITLE7=John Waite - Missing you
TTITLE8=Styx - Babe
TTITLE9=Air Supply - All out of love
TTITLE10=Peter Cetera - Glory of love
TTITLE11=Bonnie Tyler - Total eclipse of the heart
EXTD=
EXTT0=
EXTT1=
EXTT2=
EXTT3=
EXTT4=
EXTT5=
EXTT6=
EXTT7=
EXTT8=
EXTT9=
EXTT10=
EXTT11=
PLAYORDER=
